Coordinates
nRows=10
nColumns=38

# SIMM Motion File Header:
name Coordinates
datacolumns 38
datarows 10
otherdata 1
range 1.82799999999999980000 1.83700000000000000000

Units are S.I. units (second, meters, Newtons, ...)
Angles are in degrees.

endheader
time	pelvis_tilt	pelvis_list	pelvis_rotation	pelvis_tx	pelvis_ty	pelvis_tz	hip_flexion_r	hip_adduction_r	hip_rotation_r	knee_angle_r	ankle_angle_r	subtalar_angle_r	mtp_angle_r	hip_flexion_l	hip_adduction_l	hip_rotation_l	knee_angle_l	ankle_angle_l	subtalar_angle_l	mtp_angle_l	lumbar_extension	lumbar_bending	lumbar_rotation	arm_flex_r	arm_add_r	arm_rot_r	elbow_flex_r	pro_sup_r	wrist_flex_r	wrist_dev_r	arm_flex_l	arm_add_l	arm_rot_l	elbow_flex_l	pro_sup_l	wrist_flex_l	wrist_dev_l
      1.82799999999999980000	      0.80535811687904035000	     -4.44254224307166720000	     -0.95233438188010711000	      1.03178920618714830000	      1.00700305470009740000	     -0.45109919056546299000	     11.33545559919874900000	     11.89614471798528700000	     12.50515251473532000000	    -37.65973159568700600000	     25.05632157416565100000	     -0.00000000000000445197	     -0.00000000000001914482	     20.30570674967095000000	     -2.65221115156794470000	      8.01188533807913570000	    -74.84872044441966900000	      9.64511745008081610000	      0.00000000000000052457	      0.00000000000000271301	     -8.58312786465142170000	      5.26874962202429040000	      5.77996660452943000000	     -9.57214183153967470000	    -10.26184761511946600000	     -0.63639384143944300000	     89.81380702591619100000	     86.80529057406406000000	      0.00000000000000150493	     -0.00000000000000151402	    -15.62008640920471200000	    -18.01497625259123600000	      4.69130224853371750000	    119.77958717847362000000	     97.19527940019145300000	      0.00000000000000143764	      0.00000000000000196801
      1.82900000000000000000	      0.77817796851643450000	     -4.39212363016820630000	     -0.95122200690148628000	      1.03176712839991150000	      1.00734027581758820000	     -0.45096962611211133000	     11.14722778561989200000	     11.83011378566362600000	     12.52641827696195500000	    -37.49321553400411500000	     25.06374767925360900000	     -0.00000000000000427603	     -0.00000000000001936427	     20.44272956555072100000	     -2.61474706167597760000	      8.00189123486011770000	    -74.68186118454272600000	      9.70070118201470070000	      0.00000000000000048314	      0.00000000000000275509	     -8.53708107527354800000	      5.19943419685234700000	      5.89672527584859200000	     -9.50667828163299690000	    -10.26805945216010600000	     -0.53971769459734320000	     90.09709950415587800000	     86.92850282468198500000	      0.00000000000000153370	     -0.00000000000000149729	    -15.76285610154558700000	    -18.01351597419622400000	      4.64084501595586650000	    120.02683145711006000000	     96.81829662442241600000	      0.00000000000000144398	      0.00000000000000202530
      1.82999999999999980000	      0.75029863098743410000	     -4.34119910240422420000	     -0.94947353536421653000	      1.03174751936818400000	      1.00768310920758060000	     -0.45084295915692069000	     10.95823851071001600000	     11.76269563657364600000	     12.54717499971684400000	    -37.32312968133491900000	     25.06840016065296300000	     -0.00000000000000411449	     -0.00000000000001959118	     20.57872511421555800000	     -2.57647912477408750000	      7.99290610607310550000	    -74.50994338340507300000	      9.75519929471358790000	      0.00000000000000044392	      0.00000000000000278922	     -8.48994881472517090000	      5.12964096220921560000	      6.01235521110642870000	     -9.44179126675426690000	    -10.27517771239428700000	     -0.44190464066446106000	     90.38261034124529700000	     87.05354448584682800000	      0.00000000000000156221	     -0.00000000000000147617	    -15.90633702970832000000	    -18.01155595875505700000	      4.59068756533695050000	    120.27696823832711000000	     96.44667535539746000000	      0.00000000000000145063	      0.00000000000000208192
      1.83100000000000000000	      0.72168725852627680000	     -4.28978704033920000000	     -0.94710502958706710000	      1.03173034544510770000	      1.00803139321578920000	     -0.45071919121671200000	     10.76859251195190500000	     11.69393140311374600000	     12.56744864708768000000	    -37.14960667449626900000	     25.07020069589453100000	     -0.00000000000000400830	     -0.00000000000001981489	     20.71371600348972900000	     -2.53741942070134470000	      7.98494529308700860000	    -74.33299475703388700000	      9.80859866146716010000	      0.00000000000000040925	      0.00000000000000281274	     -8.44170218279498030000	      5.05939586588625810000	      6.12685875928695540000	     -9.37746875775789770000	    -10.28318995822959400000	     -0.34296315474352612000	     90.67023078043503400000	     87.18031091158272300000	      0.00000000000000159732	     -0.00000000000000147053	    -16.05051313700063200000	    -18.00903075978588700000	      4.54074341524280900000	    120.52980830491026000000	     96.08061550300001800000	      0.00000000000000145662	      0.00000000000000213912
      1.83199999999999990000	      0.69231065595191332000	     -4.23790873148856570000	     -0.94413800898932287000	      1.03171557895898050000	      1.00838496475387720000	     -0.45059832090594487000	     10.57839475206809300000	     11.62386529204055400000	     12.58726651321802900000	    -36.97278162437240200000	     25.06906714035975300000	     -0.00000000000000393654	     -0.00000000000002004426	     20.84772282839754700000	     -2.49758410259070860000	      7.97801954382172870000	    -74.15104293071739500000	      9.86089034400501950000	      0.00000000000000037767	      0.00000000000000283060	     -8.39231085629221770000	      4.98872840429631200000	      6.24024508179783320000	     -9.31370310669215760000	    -10.29208646748896400000	     -0.24290510884418476000	     90.95985616872573600000	     87.30870361576818100000	      0.00000000000000164070	     -0.00000000000000147329	    -16.19537032615384900000	    -18.00587272803366500000	      4.49092503735303960000	    120.78516646480229000000	     95.72028768412448600000	      0.00000000000000146219	      0.00000000000000219588
      1.83300000000000000000	      0.66213545850648592000	     -4.18558826997221270000	     -0.94059908188358610000	      1.03170319793152100000	      1.00874365966314850000	     -0.45048034417264904000	     10.38775013737400200000	     11.55254433414786400000	     12.60665676876975300000	    -36.79279169664440700000	     25.06491382291763900000	     -0.00000000000000385951	     -0.00000000000002024011	     20.98076416245960400000	     -2.45699330041885270000	      7.97213521295411450000	    -73.96411545584703600000	      9.91206956747846310000	      0.00000000000000034192	      0.00000000000000284633	     -8.34174330165708430000	      4.91767151050012520000	      6.35252975558971930000	     -9.25049085803190250000	    -10.30186012581503400000	     -0.14174574199702161000	     91.25138590649221700000	     87.43863039372391200000	      0.00000000000000167847	     -0.00000000000000147248	    -16.34089632706051300000	    -18.00201230727874000000	      4.44114419737640360000	    121.04286159000522000000	     95.36583456165971000000	      0.00000000000000146633	      0.00000000000000225248
      1.83399999999999990000	      0.63112833659000589000	     -4.13285240748777660000	     -0.93651950476318913000	      1.03169318564487790000	      1.00910731311421850000	     -0.45036525450956821000	     10.19676324158679700000	     11.48001810764688100000	     12.62564801127407100000	    -36.60977571357062000000	     25.05765189637648000000	     -0.00000000000000377912	     -0.00000000000002039564	     21.11285656503708100000	     -2.41567097050525840000	      7.96729450232008320000	    -73.77223983061331600000	      9.96213561159783720000	      0.00000000000000030228	      0.00000000000000286887	     -8.28996704467836490000	      4.84626137047970040000	      6.46373428705548840000	     -9.18783249329519160000	    -10.31250625788272900000	     -0.03950358428085015000	     91.54472334899273300000	     87.57000524382623000000	      0.00000000000000171551	     -0.00000000000000147128	    -16.48708053249818000000	    -17.99737837020096300000	      4.39131228956056670000	    121.30271662001142000000	     95.01737242038419100000	      0.00000000000000146999	      0.00000000000000231096
      1.83500000000000000000	      0.59925620385977452000	     -4.07973039794542380000	     -0.93193473135896465000	      1.03168553019782070000	      1.00947576001100780000	     -0.45025304316249432000	     10.00553802839025500000	     11.40633845877131900000	     12.64426881685191600000	    -36.42387375709408600000	     25.04718975384964700000	     -0.00000000000000369341	     -0.00000000000002053712	     21.24401459005215600000	     -2.37364473795831630000	      7.96349570666433770000	    -73.57544352175155200000	     10.01109169135377300000	      0.00000000000000025845	      0.00000000000000288743	     -8.23694894836494740000	      4.77453723011695260000	      6.57388561412260590000	     -9.12573216606554460000	    -10.32402245051529600000	      0.06379962530921284800	     91.83977570158651800000	     87.70274826370145100000	      0.00000000000000175599	     -0.00000000000000147045	    -16.63391382874910500000	    -17.99189855968926500000	      4.34134067012072220000	    121.56455856036298000000	     94.67499277299093300000	      0.00000000000000147272	      0.00000000000000236779
      1.83599999999999990000	      0.56648642516293346000	     -4.02625384193484950000	     -0.92688396110703664000	      1.03168022407053870000	      1.00984883539739180000	     -0.45014369933945392000	      9.81417757342272170000	     11.33155922191132700000	     12.66254729101672900000	    -36.23522677191692800000	     25.03343342584790300000	     -0.00000000000000359112	     -0.00000000000002068699	     21.37425079435684300000	     -2.33094573897407290000	      7.96073345906539930000	    -73.37375398711576200000	     10.05894483683634600000	      0.00000000000000020559	      0.00000000000000290091	     -8.18265549160569350000	      4.70254120200907440000	      6.68301560836099110000	     -9.06419743563113830000	    -10.33640837567102400000	      0.16813902133417163000	     92.13645391474884100000	     87.83678554628227200000	      0.00000000000000179548	     -0.00000000000000146263	    -16.78138842480429100000	    -17.98549963039148000000	      4.29114099044054150000	    121.82821848061043000000	     94.33876396627603400000	      0.00000000000000147569	      0.00000000000000242210
      1.83700000000000000000	      0.53278702431546099000	     -3.97245653110287920000	     -0.92140968707000259000	      1.03167726369787750000	      1.01022637486448970000	     -0.45003721042159561000	      9.62278378556066370000	     11.25573593985817100000	     12.68051061934267700000	    -36.04397616895215600000	     25.01628696346646000000	     -0.00000000000000346016	     -0.00000000000002084816	     21.50357574558983100000	     -2.28760846317937140000	      7.95899897644810130000	    -73.16719869908845900000	     10.10570577452385300000	      0.00000000000000014541	      0.00000000000000291789	     -8.12705304872892320000	      4.63031807237433140000	      6.79116057714371470000	     -9.00323899931291120000	    -10.34966561345760300000	      0.27348669465184783000	     92.43467257869704700000	     87.97204907587368400000	      0.00000000000000182917	     -0.00000000000000145129	    -16.92949767993359000000	    -17.97810779041075300000	      4.24062553009385820000	    122.09353151170029000000	     94.00873278731668800000	      0.00000000000000147886	      0.00000000000000247484
